<svg version="1.1" baseProfile="basic" id="Layer_1" xmlns="http://www.w3.org/2000/svg" x="0" y="0" width="58" height="58" xml:space="preserve"><style>.st12{fill:#383d2c}</style><linearGradient id="SVGID_1_" gradientUnits="userSpaceOnUse" x1="14.335" y1="28.455" x2="43.672" y2="28.455"><stop offset="0" stop-color="#80b80f"/><stop offset=".275" stop-color="#689b0f"/><stop offset=".478" stop-color="#5d8516"/><stop offset=".901" stop-color="#3f4b28"/><stop offset="1" stop-color="#383d2c"/></linearGradient><path d="M14.7 0s-3.6 16.7 11 30.4S42.8 51 43.4 56.9c0 0 3.3-16.9-13.4-31.9C14.9 11.5 16 3.6 14.7 0z" fill="url(#SVGID_1_)"/><linearGradient id="SVGID_2_" gradientUnits="userSpaceOnUse" x1="14.486" y1="28.455" x2="43.817" y2="28.455"><stop offset="0" stop-color="#89bd0d"/><stop offset=".28" stop-color="#b8e411"/><stop offset=".407" stop-color="#b4e111"/><stop offset=".535" stop-color="#a8d710"/><stop offset=".662" stop-color="#94c810"/><stop offset=".756" stop-color="#80b80f"/><stop offset="1" stop-color="#4a680e"/></linearGradient><path d="M14.7 0s-2.9 16 11.6 29.7 16.4 21.3 17 27.2c0 0 3.9-17.6-12.7-32.5C15.6 10.8 16 3.6 14.7 0z" fill="url(#SVGID_2_)"/><linearGradient id="SVGID_3_" gradientUnits="userSpaceOnUse" x1="28.659" y1="11.966" x2="28.659" y2="9.949"><stop offset="0" stop-color="#383d2c"/><stop offset=".046" stop-color="#3d452a"/><stop offset=".118" stop-color="#4a5b25"/><stop offset=".206" stop-color="#5f7f1c"/><stop offset=".307" stop-color="#7cb111"/><stop offset=".321" stop-color="#80b80f"/><stop offset=".527" stop-color="#9acd0e"/><stop offset=".725" stop-color="#afde0e"/><stop offset=".823" stop-color="#acdc0e"/><stop offset=".891" stop-color="#a3d40e"/><stop offset=".951" stop-color="#94c80f"/><stop offset="1" stop-color="#80b80f"/></linearGradient><path d="M17.5 9.9c-.1 0-.1 0 0 0h-.2c-.5.1-.9.5-.9 1s.4.9.9 1h23.6v-2H17.5z" fill="url(#SVGID_3_)"/><linearGradient id="SVGID_4_" gradientUnits="userSpaceOnUse" x1="28.306" y1="18.074" x2="28.306" y2="16.057"><stop offset="0" stop-color="#383d2c"/><stop offset=".046" stop-color="#3d452a"/><stop offset=".118" stop-color="#4a5b25"/><stop offset=".206" stop-color="#5f7f1c"/><stop offset=".307" stop-color="#7cb111"/><stop offset=".321" stop-color="#80b80f"/><stop offset=".527" stop-color="#9acd0e"/><stop offset=".725" stop-color="#afde0e"/><stop offset=".823" stop-color="#acdc0e"/><stop offset=".891" stop-color="#a3d40e"/><stop offset=".951" stop-color="#94c80f"/><stop offset="1" stop-color="#80b80f"/></linearGradient><path d="M20.1 16.1c-.1 0-.1 0 0 0h-.2c-.5.1-.9.5-.9 1s.4.9.9 1h17.7v-2H20.1z" fill="url(#SVGID_4_)"/><linearGradient id="SVGID_5_" gradientUnits="userSpaceOnUse" x1="28.405" y1="23.591" x2="28.405" y2="21.574"><stop offset="0" stop-color="#383d2c"/><stop offset=".046" stop-color="#3d452a"/><stop offset=".118" stop-color="#4a5b25"/><stop offset=".206" stop-color="#5f7f1c"/><stop offset=".307" stop-color="#7cb111"/><stop offset=".321" stop-color="#80b80f"/><stop offset=".527" stop-color="#9acd0e"/><stop offset=".725" stop-color="#afde0e"/><stop offset=".823" stop-color="#acdc0e"/><stop offset=".891" stop-color="#a3d40e"/><stop offset=".951" stop-color="#94c80f"/><stop offset="1" stop-color="#80b80f"/></linearGradient><path d="M23.9 21.6h-.2c-.5.1-.9.5-.9 1s.4.9.9 1H34v-2H23.9z" fill="url(#SVGID_5_)"/><linearGradient id="SVGID_6_" gradientUnits="userSpaceOnUse" x1="377.592" y1="36.595" x2="377.592" y2="34.578" gradientTransform="matrix(-1 0 0 1 404.842 0)"><stop offset="0" stop-color="#383d2c"/><stop offset=".046" stop-color="#3d452a"/><stop offset=".118" stop-color="#4a5b25"/><stop offset=".206" stop-color="#5f7f1c"/><stop offset=".307" stop-color="#7cb111"/><stop offset=".321" stop-color="#80b80f"/><stop offset=".527" stop-color="#9acd0e"/><stop offset=".725" stop-color="#afde0e"/><stop offset=".823" stop-color="#acdc0e"/><stop offset=".891" stop-color="#a3d40e"/><stop offset=".951" stop-color="#94c80f"/><stop offset="1" stop-color="#80b80f"/></linearGradient><path d="M34.7 34.6c.1 0 .1 0 0 0h.2c.5.1.9.5.9 1s-.4.9-.9 1H18.7v-2h16z" fill="url(#SVGID_6_)"/><linearGradient id="SVGID_7_" gradientUnits="userSpaceOnUse" x1="376.646" y1="42.191" x2="376.646" y2="40.173" gradientTransform="matrix(-1 0 0 1 404.842 0)"><stop offset="0" stop-color="#383d2c"/><stop offset=".046" stop-color="#3d452a"/><stop offset=".118" stop-color="#4a5b25"/><stop offset=".206" stop-color="#5f7f1c"/><stop offset=".307" stop-color="#7cb111"/><stop offset=".321" stop-color="#80b80f"/><stop offset=".527" stop-color="#9acd0e"/><stop offset=".725" stop-color="#afde0e"/><stop offset=".823" stop-color="#acdc0e"/><stop offset=".891" stop-color="#a3d40e"/><stop offset=".951" stop-color="#94c80f"/><stop offset="1" stop-color="#80b80f"/></linearGradient><path d="M38.4 40.2c.1 0 .1 0 0 0h.2c.5.1.9.5.9 1s-.4.9-.9 1H16.9v-2h21.5z" fill="url(#SVGID_7_)"/><linearGradient id="SVGID_8_" gradientUnits="userSpaceOnUse" x1="376.331" y1="48.298" x2="376.331" y2="46.281" gradientTransform="matrix(-1 0 0 1 404.842 0)"><stop offset="0" stop-color="#383d2c"/><stop offset=".046" stop-color="#3d452a"/><stop offset=".118" stop-color="#4a5b25"/><stop offset=".206" stop-color="#5f7f1c"/><stop offset=".307" stop-color="#7cb111"/><stop offset=".321" stop-color="#80b80f"/><stop offset=".527" stop-color="#9acd0e"/><stop offset=".725" stop-color="#afde0e"/><stop offset=".823" stop-color="#acdc0e"/><stop offset=".891" stop-color="#a3d40e"/><stop offset=".951" stop-color="#94c80f"/><stop offset="1" stop-color="#80b80f"/></linearGradient><path d="M40.9 46.3s.1 0 0 0h.2c.5.1.9.5.9 1s-.4.9-.9 1H15v-2h25.9z" fill="url(#SVGID_8_)"/><g opacity=".57"><path class="st12" d="M26.8 36.6c-.2-.4-.4-1.2.5-2h-8.4l-.2 1.1v.9h8.1zM26.8 23.6H34v-2h-7.3s1.1.8.1 2zM21.6 46.3H15v2h6.3c-.2-.3-.6-1.1.3-2zM34.3 12h6.6v-2h-6.7s1.1.8.1 2zM23.3 40.2l-.1-.1h-6.3v2h5.9c-.2-.2-.6-1.1.5-1.9zM31.8 18.1h5.8v-2h-6c.1 0 1.2.8.2 2z"/></g><linearGradient id="SVGID_9_" gradientUnits="userSpaceOnUse" x1="13.289" y1="28.455" x2="42.626" y2="28.455"><stop offset="0" stop-color="#383d2c"/><stop offset=".099" stop-color="#3f4b28"/><stop offset=".522" stop-color="#5d8516"/><stop offset=".725" stop-color="#689b0f"/><stop offset="1" stop-color="#80b80f"/></linearGradient><path d="M42.2 0s3.6 16.7-11 30.4-17 20.6-17.7 26.5c0 0-3.3-16.9 13.4-31.9 15.2-13.5 14-21.4 15.3-25z" fill="url(#SVGID_9_)"/><linearGradient id="SVGID_10_" gradientUnits="userSpaceOnUse" x1="8.892" y1="51.495" x2="47.77" y2="4.346"><stop offset="0" stop-color="#4a680e"/><stop offset=".223" stop-color="#80b80f"/><stop offset=".503" stop-color="#afde0e"/><stop offset=".834" stop-color="#80b80f"/><stop offset="1" stop-color="#4a680e"/></linearGradient><path d="M42.2 0s2.9 16-11.6 29.7S14.2 51 13.5 56.9c0 0-3.9-17.6 12.7-32.5C41.4 10.8 40.9 3.6 42.2 0z" fill="url(#SVGID_10_)"/></svg>