<svg version="1.1" baseProfile="basic" id="Layer_1" xmlns="http://www.w3.org/2000/svg" x="0" y="0" width="58" height="58" xml:space="preserve"><style></style><linearGradient id="SVGID_1_" gradientUnits="userSpaceOnUse" x1="29" y1="-55.071" x2="29" y2="-73.145" gradientTransform="matrix(1 0 0 -1 0 -24.29)"><stop offset="0" stop-color="#e00b7a"/><stop offset=".102" stop-color="#d21081"/><stop offset=".296" stop-color="#ad1c95"/><stop offset=".559" stop-color="#7231b5"/><stop offset=".88" stop-color="#214de1"/><stop offset="1" stop-color="#0158f2"/></linearGradient><path d="M52.1 47.3H45c-.9 0-2.4-.7-3-1.5L31 29.7l11.2-16.3c.6-.7 2.1-1.5 3-1.5h6.9V9h-6.9c-1.9 0-4.3 1.3-5.4 2.8L29.1 27.3 18.4 11.8C17.3 10.3 15.1 9 13 9H5.9v3H13c.9 0 2.4.7 3 1.5l11.2 16.3-11 16.1c-.6.7-2.1 1.5-3 1.5H5.9v3h7.3c1.9 0 4.3-1.3 5.4-2.8l10.5-15.3 10.5 15.3c1.1 1.5 3.4 2.8 5.4 2.8h7.1v-3.1z" fill="url(#SVGID_1_)"/><radialGradient id="SVGID_2_" cx="29.685" cy="-48.355" r="21.892" gradientTransform="matrix(1 0 0 -1 0 -24.29)" gradientUnits="userSpaceOnUse"><stop offset="0" stop-color="#f15a29"/><stop offset=".2" stop-color="#f0552e" stop-opacity=".8"/><stop offset=".44" stop-color="#ed473d" stop-opacity=".56"/><stop offset=".702" stop-color="#e82f55" stop-opacity=".298"/><stop offset=".976" stop-color="#e10e77" stop-opacity=".024"/><stop offset="1" stop-color="#e00b7a" stop-opacity="0"/></radialGradient><path d="M52.1 47.3H45c-.9 0-2.4-.7-3-1.5L31 29.7l11.2-16.3c.6-.7 2.1-1.5 3-1.5h6.9V9h-6.9c-1.9 0-4.3 1.3-5.4 2.8L29.1 27.3 18.4 11.8C17.3 10.3 15.1 9 13 9H5.9v3H13c.9 0 2.4.7 3 1.5l11.2 16.3-11 16.1c-.6.7-2.1 1.5-3 1.5H5.9v3h7.3c1.9 0 4.3-1.3 5.4-2.8l10.5-15.3 10.5 15.3c1.1 1.5 3.4 2.8 5.4 2.8h7.1v-3.1z" fill="url(#SVGID_2_)"/></svg>